/* XPM */
static char *result[] = {
/* columns rows colors chars-per-pixel */
"50 50 94 2 ",
"   c #171009",
".  c #18110B",
"X  c #3F3528",
"o  c #463B30",
"O  c #4A4032",
"+  c #554632",
"@  c #5E4A38",
"#  c #5F564A",
"$  c #6B5C46",
"%  c #6D6049",
"&  c #79624B",
"*  c #81705B",
"=  c #857760",
"-  c #8A7C63",
";  c #947E62",
":  c #978061",
">  c #97866E",
",  c #938D7C",
"<  c #9F9079",
"1  c #A79373",
"2  c #A89578",
"3  c #AE9B7C",
"4  c #A59680",
"5  c #A89981",
"6  c #AC9F8A",
"7  c #B4A183",
"8  c #B8A586",
"9  c #B7A688",
"0  c #BBAB8C",
"q  c #AFA290",
"w  c #B2A796",
"e  c #BBAD95",
"r  c #BCAF9B",
"t  c #BEB29A",
"y  c #C1A484",
"u  c #C0AF90",
"i  c #C1B396",
"p  c #C2B59C",
"a  c #C6B99D",
"s  c #C8BC9F",
"d  c #C4B6A2",
"f  c #C5BAA3",
"g  c #CABDA4",
"h  c #C6BBA9",
"j  c #CABEA9",
"k  c #D1BCA0",
"l  c #CDC1A6",
"z  c #CDC2AC",
"x  c #D2C6AD",
"c  c #D4C9AF",
"v  c #C4C3B5",
"b  c #CCC5B3",
"n  c #CEC8B4",
"m  c #C4C3B8",
"M  c #CECABB",
"N  c #D1C6B3",
"B  c #D4CBB4",
"V  c #D9CEB5",
"C  c #D4CDBA",
"Z  c #D9CFBB",
"A  c #DAD1B7",
"S  c #D6D1BC",
"D  c #DCD3BC",
"F  c #E0D7BD",
"G  c #E1D8BE",
"H  c #CECDC2",
"J  c #D2CFC1",
"K  c #CFD0C6",
"L  c #D5D2C3",
"P  c #DBD5C3",
"I  c #D7D8C6",
"U  c #DCD9C5",
"Y  c #D4D4CA",
"T  c #D9D6C9",
"R  c #D6D8CC",
"E  c #DCDACB",
"W  c #D5D5D1",
"Q  c #D6D8D2",
"!  c #DBDBD4",
"~  c #DBDCD9",
"^  c #E4DCC4",
"/  c #E8DFC6",
"(  c #E4DECA",
")  c #DEE2DF",
"_  c #E7E0C7",
"`  c #E8E0C7",
"'  c #E6E0CA",
"]  c #E9E2CB",
"[  c #E6E3D2",
"{  c #EBE5D3",
"}  c #EEE8D4",
"|  c #E1E3DF",
" . c #F1EBD9",
".. c None",
/* pixels */
"....................................................................................................",
"....................................................................................................",
"......................) ) ) R ......................................................................",
"....................) ) E I I I I L ) ..............................................................",
"................) E R I ( I I I I S I I R ..........................................................",
"..............) E E I I I I I U I L D S Y ! ........................................................",
"..............~ I E S I E E I I U D S S B L R ......................................................",
"..............Q I S S S D U P U P P S S B M I ) ....................................................",
"............Y v S S B C S I D U P S S D C C J ! ....................................................",
"..........! M h M S n B B S S S S S L S C C Z T ....................................................",
"..........! M f c S S S B C B B x b S S B Z Z P ....................................................",
"..........R v l n S B 9 3 z z n t : e S B A B P ....................................................",
"..........Y n l n c 0 + @ s x S w X % a c A B L ....................................................",
"..........Y x z B l :   # A ^ _ D , * 0 x c B L ....................................................",
"............N x B s 3 & 7 c V c D G c s l c B ......................................................",
"............S N c s 0 0 l t % % e c F A z f z ......................................................",
"..............M z d s x B 5   . 3 N D D n t b ......................................................",
"..............L n z B Z V p o o t B A D x f m ......................................................",
"..............K n n Z V V j - = p B V S B N n J Q ..................................................",
"..............K n B B B x g > < a l c c V A P S L Y ................................................",
"..............Y b n n l j j j j l g l c A A D ^ J Z T ! ............................................",
"................K z z b N j j x g g l c A A V D ^ P P T ! ..........................................",
"................K M b v b h e e e s c V A D F F Z ^ P T E T ! ......................................",
"................K M b n j d e d d z A D F G G G F ^ P ^ T P T ! ....................................",
"..................Y H b j h d h j V V F ^ F F ^ ^ ^ ^ ^ ^ T L Y Q ..................................",
"..................Q J b j b j j P F Z Z ^ ^ F F ^ ^ ( ( ( ( P T P ..................| ..............",
"..................Q J M b N N Z P ^ F P ^ ^ / / ^ ^ / ( [ ( T P L T ..............! ! ! ~ ..........",
"....................Y Z C J Z Z P ^ P ^ ^ ^ G / ^ / { / ( ( ( ^ ^ T T ..........! E T Y Y ~ ........",
"....................! J P P Z P P P P ^ ^ / / / / ] ] ] { ( ( ( P J J T ~ ......T E T C H ~ ........",
"....................! ^ P ^ P ^ P P P ^ / / ^ / ^ ( ^ / ] / ( ^ ^ P P J Y W W K L U P L Y ! ........",
"....................! T ( ^ P P Z Z P ^ / / ^ / / / ^ / { / / ( P ^ ^ D L J H j n S S L L ! ........",
"....................! T T ^ Z P V P P / / / / / / ^ / ] ] / / / ^ ^ ^ T P C n b j B D P U ! ........",
"....................) E ( U ^ P C P ^ ( / ^ F / G G ] } ` _ / / / ^ ( ^ D S C B j z S ( T ..........",
"......................E T P P S Z ^ ( ( { ] F / ` G ] ` ` ^ G ` / / ( ( ^ U T B j z Z P Y ..........",
"......................) E T P Z D ^ [ / ] ] F / ] ` ] ` ] ` ^ ` _ _ / ( ^ ( A B N C J J Y ..........",
"........................! ^ J N C P ( ] ] / F G ] ] ] ` / / / ] _ ' ' ' ' ' P N n Z L C ............",
"........................~ P J N b B ^ ( ] G F F / G / ] / ( ( ] ] ] ] ] _ ' I n b b C ..............",
"..........................( L n N D ( ] / G F A G G ( / / ] ( / ] { ] ] ^ _ ( A b b ................",
"..........................E P N N P ( ] ] / F V F F G / / / ] / ` ] ] _ _ _ E I C m ................",
"..........................( P z j L ( / ^ ^ D V F F F G ( / ] ] ] ] { ] [ _ _ I M m ................",
"..........................( T N j P ( ( ^ ^ Z l x B Z P ^ ] ` ] ] G _ ] ] ] [ ' L ..................",
"..........................E D N j ^ / ^ ^ F x i a g B x ^ ] / ` } _ ] { ] [ [ ' T ..................",
"..........................T P j d ^ / ` ^ V a 9 0 p x j ^ ] ` ^ _ _ _ ' ] ' ( T Y ..................",
"........................T P D g j ^ ] ] / V i 7 7 u j x ^ ( ` G _ _ ^ ' [ [ [ E T ..................",
"....................R ( / ^ D x V F ^ ] ^ N w 6 1 8 V V ^ D ^ D V G G ] ( { [ [ ....................",
"....................E ' ] ^ Z D ^ ^ / ] F g ..w 2 0 D F D V V c c D ^ _ ( [ { ......................",
"....................U ( ] ^ ^ ^ ] ] } ] ^ ........B V F A Z Z A U ' { ..............................",
"............................T ] } ] { } ] ..........................................................",
"............................( }  .} ................................................................",
"...................................................................................................."
};
