/* XPM */
static char *result[] = {
/* columns rows colors chars-per-pixel */
"50 50 54 1 ",
"  c #51851C",
". c #548D1D",
"X c #588E1E",
"o c #569417",
"O c #56921C",
"+ c #5B951E",
"@ c #5E991E",
"# c #60971E",
"$ c #619B1E",
"% c #64A11E",
"& c #518020",
"* c #568E21",
"= c #5A8E24",
"- c #5B8E2A",
"; c #579121",
": c #5C9523",
"> c #5E9922",
", c #5E9629",
"< c #728B2E",
"1 c #619625",
"2 c #6B9426",
"3 c #639C24",
"4 c #699E25",
"5 c #63952A",
"6 c #6B962A",
"7 c #659C29",
"8 c #699E2B",
"9 c #709D2D",
"0 c #6D9731",
"q c #6B9E31",
"w c #719C32",
"e c #7A9B34",
"r c #66A124",
"t c #6AA325",
"y c #6EA926",
"u c #67A02A",
"i c #6CA32A",
"p c #6EA92A",
"a c #70A426",
"s c #72AA26",
"d c #71A62D",
"f c #73AA2C",
"g c #78AE2D",
"h c #6FB125",
"j c #74B129",
"k c #79B22E",
"l c #6EA331",
"z c #6FA830",
"x c #73A632",
"c c #75AA32",
"v c #79AD33",
"b c #79AD39",
"n c #7BB132",
"m c #7EB338",
/* pixels */
"i33dfiOtu @d46uflpc37tt33fzl#133@++1iijtt%t3317818",
"13133$rj>>p91,rfxxst33rr3xt:O4r>#+X#34yyfit31:xc73",
":#@3rrpp1773158titppt34ttw61:rt83:343rtf3163:3t134",
"33:3:>ul11>>tui@tpctr3a87uf3O1tr3:383tfi3trit44::$",
"d3>>;*8t73st41tt1tci3>33:>sf>>3utip37:1>13tftit83t",
"p3ri>>8>1t3tp::ittid3:.3trrft::::ri,1r1ttp33pctryg",
"3$tgytr3ui1>:3@3ufddddcitr487>>:*8t3ryy3:ri38dt333",
"1itcfr>3zu8>41343d884p43t3fv8ri33u>1rrti::ittpx8ia",
">iffdtr4@::33ii3;;7>18:Or3r8>rny43rzi1::3#rtsdiixv",
"3ri888p83::3iii3+;3>3t>O88>73yff333p81341343tq88tt",
"3@;7>4fpr>:d88t3:3t383r+:r3utgddatr>::1upi3;*7>3i$",
"+:3313dtu3>it8ti13urzrtr+333@7q77it1::tiit3;;3:r61",
"@$$f113rciupt8tii7717t33>>>:*;3>tcp811f364313tri& ",
"a4$t133+,73188ui>7:13ff3u10x413>1ptt3>tiupp338tuX@",
"411rr>+ti>>.>utt>>rtyiitt2epr%f7>r3biut8uut8813:+3",
".#317::sg>>@3@3t83it8>1idtp>:$t:>t>,71>88ui31:31:;",
"r%t387ttluuttiiit3::>+3z333ri8311r3r3t34ifg313t43%",
"ytt3rxl81755xxi8t3:>$:33rr34u7:3833338q78p@:r3fd3y",
"3t38rt1:rtt:,1O3ir7zttr4iit3:::3txp>**3>6i:Ou313tt",
"317>:+utr%pp1X+ttrtcd3>3i8dtu:>ti8t3@1t>3i:O7rtxx8",
">354str3ttrtz:18::tddt3t>3tiu1ur3p4t7utr733rrt%t75",
":13rrtt;>t4pdift>1uu883tt1:i3r1:1ptp3%$3icdt3t4@::",
"t34t:@>:33ttpixt>p486733>>:,1tr3rpt321:>tt:r>:431.",
"itx8::7z8#$gzu3r1i48ttii3>:::44rpf3r3ir443.333331=",
"33r>tf6,1:ac5:O>3ppttfvft>:xp38133:8rpiu4t;1x8#485",
"33>txxzir8t3;.3p8883rtgsi37pi77>:3it%3iditr;73#dx5",
"11tx7:i8pp83;;tt:O3pt3i8bzuui71ypt3rt38pxtt;>ift83",
"trtr7;3tfu3p1ri1@O#4tvd1zz8r33r3rp1;tttix37>>3xuii",
">733333rr.:yf3734t33%i83fftt3up3>>7>3ttddx4r3@7ili",
"77t313@$r:>fn33r17d33>>rff4$>iz7138:34pzut4pi1;133",
">>3134i3td7678pt7:7333usgdd3r3::>34i4+*11:8cp314++",
"r333tfddit,:18irp813333iq788p31;1td8t+.3@>p813>133",
"zi37:1pz1113tut@ttl:@:;O7>3dfr3:ii48r>>ir>31#3333u",
"u3>:**tu7tyyt>tt4ix150u:1>3ppi3>uttti8>tri83f33t,7",
"Ooru333>3r3t8:1ittt3<vh%i8:3>xzriut7iuu1133di6:t3:",
" O3ptt3rt3>1:>>3tdats7>>t13u>:573887i77:>3tfud13u3",
">r3>r873tru7::>>tv53tp1:rt1:$y8++:8tt%+33yf>;tf13t",
"r31tt38517xi:333p3:;3p3333:;aj3:#133tp8gpti:;tc34p",
"i01338p8t>r33tii31.3387t381rtll3tuiid:u7::@>O3vrpd",
"uipu::it8r33tpvi8i>33;:rrrpx8177,icd7.p5 3p>rtcxfd",
"33t37>t1*3r3t78:>yttt8t883y113%t,13++tc>tp6,>tvxgs",
"tt73tri;;$yff33;:jn3>rp73:+rit%sd3+.3ii>uut>>tdrag",
"7p>tut311ivfi83358t>:8p11ytr3rt$pi1@rrx17>338zp4v8",
"ygrpr1>:3ttyg8+37-:3:r33rryt1+i3tdppif7:33ip8738i@",
"nxtOO.>u13>3p>.3r3tr3tr8r1>>1:8rttdxpp71dtp3+@4#o$",
"gpfO>3sfic87u>:cj831;3rfi1>:li>@ad81up7:dp33++t@#g",
"nxf32fsr8gr333#wxptri43313f813:3i5:+O3u7it>:3@@+$t",
"clpp7pr%t%$$31166t;8tt133dbx8#.:*;.ort87it:1u:Otyf",
"idd43tttx8>3:O3f4333871tpi-88111*;>rtippxm8,u>:bff",
"bi8pdv7>8*O+:+Od84dd6:>r37713>8iX18477utdk3r737qwc"
};
