/* XPM */
static char *result[] = {
/* columns rows colors chars-per-pixel */
"50 50 247 2 ",
"   c black",
".  c #010100",
"X  c #010101",
"o  c #020202",
"O  c #030302",
"+  c gray1",
"@  c #040403",
"#  c #040404",
"$  c #050504",
"%  c gray2",
"&  c #060606",
"*  c #070706",
"=  c #080807",
"-  c #090908",
";  c #0A0A08",
":  c #0A0A09",
">  c #0B0B09",
",  c #0C0C0A",
"<  c #0C0C0B",
"1  c #0D0D0B",
"2  c #0D0D0C",
"3  c #0E0E0C",
"4  c #0F0F0D",
"5  c #10100E",
"6  c #11110F",
"7  c #121210",
"8  c #131311",
"9  c #141411",
"0  c #151512",
"q  c #161613",
"w  c #171614",
"e  c #171714",
"r  c #171715",
"t  c #181815",
"y  c #191916",
"u  c #1A1916",
"i  c #1A1A17",
"p  c #1B1B18",
"a  c #1C1B18",
"s  c #1C1C19",
"d  c #1D1D19",
"f  c #1F1F1B",
"g  c #20201C",
"h  c #21211D",
"j  c #22221E",
"k  c #23231F",
"l  c #262621",
"z  c #272622",
"x  c #282823",
"c  c #292924",
"v  c #2B2B26",
"b  c #2D2D28",
"n  c #2E2E28",
"m  c #2F2F29",
"M  c #30302A",
"N  c #31312B",
"B  c #32322C",
"V  c #36362F",
"C  c #373730",
"Z  c #393932",
"A  c #3A3A33",
"S  c #3B3B33",
"D  c #3D3D36",
"F  c #3E3E36",
"G  c #3E3E37",
"H  c #3F3F37",
"J  c #3F3F38",
"K  c #404038",
"L  c #43433B",
"P  c #45443C",
"I  c #48483F",
"U  c #494940",
"Y  c #4C4B42",
"T  c #4D4D43",
"R  c #4E4E44",
"E  c #515147",
"W  c #56564B",
"Q  c #58584D",
"!  c #59594E",
"~  c #5C5B50",
"^  c #5C5C50",
"/  c #5C5C51",
"(  c #5D5D51",
")  c #5F5F53",
"_  c #636357",
"`  c #656559",
"'  c #6B6B5E",
"]  c #6D6D5F",
"[  c #6E6E60",
"{  c #6E6E61",
"}  c #717163",
"|  c #727264",
" . c #737365",
".. c #777768",
"X. c #787869",
"o. c #78786A",
"O. c #7A7A6B",
"+. c #7B7B6C",
"@. c #7C7B6C",
"#. c #7C7C6D",
"$. c #7D7D6D",
"%. c #7D7D6E",
"&. c #7E7D6E",
"*. c #7E7E6E",
"=. c #808070",
"-. c #818171",
";. c #828172",
":. c #828272",
">. c #838272",
",. c #848373",
"<. c #848474",
"1. c #868575",
"2. c #878777",
"3. c #8B8A79",
"4. c #8C8C7A",
"5. c #8C8C7B",
"6. c #8F8F7D",
"7. c #908F7E",
"8. c #90907E",
"9. c #91907E",
"0. c #91917F",
"q. c #929280",
"w. c #939280",
"e. c #939381",
"r. c #949381",
"t. c #959583",
"y. c #969683",
"u. c #979785",
"i. c #989885",
"p. c #999886",
"a. c #9B9A87",
"s. c #9C9C88",
"d. c #9C9C89",
"f. c #9E9E8A",
"g. c #9E9E8B",
"h. c #9F9E8B",
"j. c #A1A08D",
"k. c #A2A18D",
"l. c #A3A28E",
"z. c #A3A38F",
"x. c #A4A490",
"c. c #A5A490",
"v. c #A5A591",
"b. c #A6A691",
"n. c #A7A692",
"m. c #A7A792",
"M. c #A8A893",
"N. c #A9A893",
"B. c #A8A894",
"V. c #A9A994",
"C. c #A9A995",
"Z. c #AAAA95",
"A. c #AAAA96",
"S. c #ABAB96",
"D. c #ACAC96",
"F. c #ACAC97",
"G. c #ADAC97",
"H. c #ADAD97",
"J. c #ADAD98",
"K. c #AEAD98",
"L. c #AEAE98",
"P. c #AEAE99",
"I. c #AFAE99",
"U. c #AFAF99",
"Y. c #B0AF9A",
"T. c #B0B09B",
"R. c #B1B19B",
"E. c #B2B19C",
"W. c #B2B29C",
"Q. c #B3B39D",
"!. c #B4B39D",
"~. c #B4B49E",
"^. c #B5B59F",
"/. c #B6B59F",
"(. c #B6B6A0",
"). c #B7B7A0",
"_. c #B8B7A0",
"`. c #B9B8A2",
"'. c #B9B9A2",
"]. c #BAB9A3",
"[. c #BBBAA4",
"{. c #BBBBA4",
"}. c #BCBBA4",
"|. c #BCBCA5",
" X c #BEBDA6",
".X c #BEBEA7",
"XX c #BFBFA7",
"oX c #C0BFA8",
"OX c #C1C0A9",
"+X c #C2C1AA",
"@X c #C2C2AA",
"#X c #C3C2AA",
"$X c #C3C2AB",
"%X c #C4C3AB",
"&X c #C5C5AD",
"*X c #C7C6AE",
"=X c #C8C7AF",
"-X c #C8C8AF",
";X c #CAC9B1",
":X c #CACAB1",
">X c #CBCAB2",
",X c #CCCBB2",
"<X c #CDCCB3",
"1X c #CECDB4",
"2X c #CFCEB5",
"3X c #D0CFB5",
"4X c #D0CFB6",
"5X c #D1D1B7",
"6X c #D2D1B8",
"7X c #D3D2B8",
"8X c #D3D2B9",
"9X c #D4D3B9",
"0X c #D4D4BA",
"qX c #D6D5BB",
"wX c #D6D6BC",
"eX c #D7D6BC",
"rX c #D7D7BC",
"tX c #D8D7BD",
"yX c #D8D8BD",
"uX c #D9D8BD",
"iX c #DBDABF",
"pX c #DDDCC1",
"aX c #DEDDC2",
"sX c #DFDEC3",
"dX c #E0DFC3",
"fX c #E0DFC4",
"gX c #E1E0C4",
"hX c #E1E0C5",
"jX c #E2E1C5",
"kX c #E2E1C6",
"lX c #E3E2C6",
"zX c #E3E2C7",
"xX c #E4E3C7",
"cX c #E5E4C8",
"vX c #E5E4C9",
"bX c #E6E5C9",
"nX c #E7E5C9",
"mX c #E7E6C9",
"MX c #E7E6CA",
"NX c #E8E7CA",
"BX c #E8E7CB",
"VX c #E9E8CB",
"CX c #E9E8CC",
"ZX c #EAE9CC",
"AX c #EAE9CD",
"SX c #EBEACD",
"DX c None",
/* pixels */
"DXDXDXDXDXDXDXDXDXDXDXDXDXDXDXDXDXDXDXDXDXDXDXDXDXDXDXDXDXDXDXDXDXDXDXDXDXDXDXDXDXDXDXDXDXDXDXDXDXDX",
"DXDXDXDXDXDXDXDXDXDXDXDXDXDXDXDXDXDXDXDXDXDXDXDXDXDXDXDXDXDXDXDXDXDXDXDXDXDXDXDXDX    X   DXDXDXDXDX",
"DXDXDXDXDXDXDXDXDXDXDXDXDXDXDXDXDXDXDXDXDXDXDXDXDXDXDXDXDXDXDXDXDXDXDXDXDXDXDXDXDX7  .e.F   DXDXDXDX",
"DXDXDXDXDXDXDXDXDXDXDXDXDXDXDXDXDXDXDXDXDXDXDXDXDXDXDXDXDXDXDXDXDXDXDXDXDXDXDXDX% ,.BXSX3XH   DXDXDX",
"DXDXDXDXDXDXDXDXDXDXDXDXDXDXDXDXDXDXDXDXDXDXDXDXDXDXDXDXDXDXDXDXDXDXDXDXDXDXDXDXZ uXMXbXCX_.a DXDXDX",
"DXDXDXDXDXDXDXDXDXDXDXDXDXDXDXDXDXDXDXDXDXDXDXDXDXDXDXDXDXDXDXDXDXDXDXDXDXDXDX  ,.ZXbXbXbXbX) DXDXDX",
"DXDXDXDXDXDXDXDXDXDXDXDXDXDXDXDXDXDXDXDXDXDXDXDXDXDXDXDXDXDXDXDXDXDXDXDXDXDXDXi  XBXbXbXbXAXw.+ DXDX",
"DXDXDXDXDXDXDXDXDXDXDXDXDXDXDXDXDXDXDXDXDXDXDXDXDXDXDXDXDXDXDXDXDXDXDXDXDXDXDXK pXmXbXbXbXCXM.< DXDX",
"DXDXDXDXDXDXDXDXDXDXDXDXDXDXDXDXDXDXDXDXDXDXDXDXDXDXDXDXDXDXDXDXDXDXDXDXDXDXDX' BXbXbXbXbXCXS.3 DXDX",
"DXDXDXDXDXDXDXDXDXDXDXDXDXDXDXDXDXDXDXDXDXDXDXDXDXDXDXDXDXDXDXDXDXDXDXDXDXDX@ r.ZXbXbXbXbXZXh.= DXDX",
"DXDXDXDXDXDXDXDXDXDXDXDXDXDXDXDXDXDXDXDXDXDXDXDXDXDXDXDXDXDXDXDXDXDXDXDXDXDX9 ^.VXbXbXbXbXZX&.DXDXDX",
"DXDXDXDXDXDXDXDXDXDXDXDXDXDXDXDXDXDXDXDXDXDXDXDXDXDXDXDXDXDXDXDXDXDXDXDXDXDXz 1XMXbXbXbXbXkXT DXDXDX",
"DXDXDXDXDXDXDXDXDXDXDXDXDXDXDXDXDXDXDXDXDXDXDXDXDXDXDXDXDXDXDXDXDXDXDXDXDXDXP fXbXbXbXbXBX*Xg DXDXDX",
"DXDXDXDXDXDXDXDXDXDXDXDXDXDXDXDXDXDXDXDXDXDXDXDXDXDXDXDXDXDXDXDXDXDXDXDXDX  @.CXbXbXbXbXZXk.* DXDXDX",
"DXDXDXDXDXDXDXDXDXDXDXDXDXDXDXDXDXDXDXDXDXDXDXDXDXDXDXDXDXDXDXDXDXDXDXDX  d #XBXbXbXbXbXZX>.  DXDXDX",
"DXDXDXDXDXDXDXDXDXDXDXDXDXDXDXDXDXDXDXDXDXDXDXDXDXDXDXDXDXDXDXDXDXDX    l p.bXbXbXbXbXbXMX1.g DXDXDX",
"DXDXDXDXDXDXDXDXDXDXDXDXDXDXDXDXDXDXDXDXDXDXDXDXDXDXDXDXDXDXDX    X l O.>XNXbXbXbXbXbXbXxXi._   DXDX",
"DXDXDXDXDXDXDXDXDXDXDXDXDXDXDXDXDXDXDXDXDXDXDXDXDXDXDXDXDX    % B <.<XBXBXbXbXbXbXbXbXbXcXE.K.0 DXDX",
"DXDXDXDXDXDXDXDXDXDXDXDXDXDXDXDXDXDXDXDXDXDXDXDXDXDXDX    8 Y a.qXCXNXbXbXbXbXbXbXbXbXbXbXjXgXR DXDX",
"DXDXDXDXDXDXDXDXDXDXDXDXDXDXDXDXDXDXDXDXDXDXDXDX    O b X.[.hXCXMXbXbXbXMXcXbXMXbXbXbXbXbXbXCXf.- DX",
"DXDXDX    DXDXDXDXDXDXDXDXDXDXDXDXDXDXDXDX      4 L 9.6XVXVXbXbXbXbXMXkX5XXX$XrXcXMXbXbXbXbXMXeXV DX",
"DXDX# j d o   DXDXDXDXDXDXDXDXDXDXDXDX    & v { !.aXCXMXbXbXbXbXMXgX2X`.F.Z.Z.U.+XyXcXMXmXmXMXNX{   ",
"DX  _ 4X;X=.w   DXDXDXDXDXDXDXDX    + h ~ j.8XNXCXmXbXbXbXmXbXsX,X(.D.Z.F.L.J.S.Z.U.OXqXaXaXwX&Xo.# ",
"DXx <XCXBXBXn.f   DXDXDXDX    X u E y.,XcXCXMXbXbXbXbXMXbXpX-X~.S.S.J.F.d.*.5.F.S.S.Z.J.E.R.J.J.%.= ",
"  ' BXbXbXbXVXN.p       O p Y 3.%XlXZXNXbXbXbXbXbXMXvXiX&XW.S.F.J.x.:.R f $ s 5.J.S.S.S.S.S.S.L...% ",
"= g.ZXbXbXbXbXBXc.x c ^ y.*XkXZXBXbXbXbXbXbXbXMXcXtX@XT.S.J.S.t.` b -         c t.J.S.S.S.S.S.L./   ",
"q /.VXbXbXbXbXbXMX1X7XbXZXBXbXbXbXbXbXbXbXMXxXqXXXU.S.J.v.:.U e .     DXDXDXDX  M u.J.S.S.S.F.z.b DX",
"y '.VXbXbXbXbXbXbXNXMXbXbXbXbXbXbXbXbXMXlX7X|.L.F.F.s.] N ;       DXDXDXDXDXDXDX  n q.P.H.J.F._ $ DX",
"5 G.CXbXbXbXbXbXbXbXbXbXbXbXbXbXbXMXhX4X].J.F.A.0.! g o     DXDXDXDXDXDXDXDXDXDXDX  g [ e.6.! < DXDX",
"o 7.ZXbXbXbXbXbXbXbXbXbXbXbXnXmXfX<X).F.H.B.2.U 9       DXDXDXDXDXDXDXDXDXDXDXDXDXDX  + 6 4     DXDX",
"DX_ MXbXbXbXbXbXbXbXbXbXMXbXaX:X^.F.H.m.-.J 2     DXDXDXDXDXDXDXDXDXDXDXDXDXDXDXDXDXDX        DXDXDX",
"DXN 9XMXbXbXbXbXbXbXbXbXpX=XQ.S.J.b.$.A :     DXDXDXDXDXDXDXDXDXDXDXDXDXDXDXDXDXDXDXDXDXDXDXDXDXDXDX",
"DX> l.CXbXbXbXbXbXbXxX1XW.S.J.b.+.C =     DXDXDXDXDXDXDXDXDXDXDXDXDXDXDXDXDXDXDXDXDXDXDXDXDXDXDXDXDX",
"DXDX! xXbXbXbXbXbXfX+XH.H.m.$.C =     DXDXDXDXDXDXDXDXDXDXDXDXDXDXDXDXDXDXDXDXDXDXDXDXDXDXDXDXDXDXDX",
"DXDXu oXBXbXbXbXzX.XS.V.:.S -     DXDXDXDXDXDXDXDXDXDXDXDXDXDXDXDXDXDXDXDXDXDXDXDXDXDXDXDXDXDXDXDXDX",
"DXDXt i.VXbXbXMXtXP.d.I ,     DXDXDXDXDXDXDXDXDXDXDXDXDXDXDXDXDXDXDXDXDXDXDXDXDXDXDXDXDXDXDXDXDXDXDX",
"DXDXW N.cXbXbXMX-XJ.}     DXDXDXDXDXDXDXDXDXDXDXDXDXDXDXDXDXDXDXDXDXDXDXDXDXDXDXDXDXDXDXDXDXDXDXDXDX",
"DXDX{ `.xXbXbXzX].J.(   DXDXDXDXDXDXDXDXDXDXDXDXDXDXDXDXDXDXDXDXDXDXDXDXDXDXDXDXDXDXDXDXDXDXDXDXDXDX",
"DXDX#.dXbXbXMXiXY.F.I DXDXDXDXDXDXDXDXDXDXDXDXDXDXDXDXDXDXDXDXDXDXDXDXDXDXDXDXDXDXDXDXDXDXDXDXDXDXDX",
"DXDX;.AXbXbXMX<XS.v.m DXDXDXDXDXDXDXDXDXDXDXDXDXDXDXDXDXDXDXDXDXDXDXDXDXDXDXDXDXDXDXDXDXDXDXDXDXDXDX",
"DXDX;.ZXbXbXxX}.D.t.r DXDXDXDXDXDXDXDXDXDXDXDXDXDXDXDXDXDXDXDXDXDXDXDXDXDXDXDXDXDXDXDXDXDXDXDXDXDXDX",
"DXDX$.ZXbXMXtXI.L.| # DXDXDXDXDXDXDXDXDXDXDXDXDXDXDXDXDXDXDXDXDXDXDXDXDXDXDXDXDXDXDXDXDXDXDXDXDXDXDX",
"DXDX| CXMXsX{.S.C.J   DXDXDXDXDXDXDXDXDXDXDXDXDXDXDXDXDXDXDXDXDXDXDXDXDXDXDXDXDXDXDXDXDXDXDXDXDXDXDX",
"DXDX/ kX0X'.S.J.4.7 DXDXDXDXDXDXDXDXDXDXDXDXDXDXDXDXDXDXDXDXDXDXDXDXDXDXDXDXDXDXDXDXDXDXDXDXDXDXDXDX",
"DXDXM J.P.Z.S.Z.U   DXDXDXDXDXDXDXDXDXDXDXDXDXDXDXDXDXDXDXDXDXDXDXDXDXDXDXDXDXDXDXDXDXDXDXDXDXDXDXDX",
"DXDX1 :.J.S.L.*.1 DXDXDXDXDXDXDXDXDXDXDXDXDXDXDXDXDXDXDXDXDXDXDXDXDXDXDXDXDXDXDXDXDXDXDXDXDXDXDXDXDX",
"DXDX  G v.P.8.k   DXDXDXDXDXDXDXDXDXDXDXDXDXDXDXDXDXDXDXDXDXDXDXDXDXDXDXDXDXDXDXDXDXDXDXDXDXDXDXDXDX",
"DXDXDX# D Q f   DXDXDXDXDXDXDXDXDXDXDXDXDXDXDXDXDXDXDXDXDXDXDXDXDXDXDXDXDXDXDXDXDXDXDXDXDXDXDXDXDXDX",
"DXDXDXDX      DXDXDXDXDXDXDXDXDXDXDXDXDXDXDXDXDXDXDXDXDXDXDXDXDXDXDXDXDXDXDXDXDXDXDXDXDXDXDXDXDXDXDX",
"DXDXDXDXDX  DXDXDXDXDXDXDXDXDXDXDXDXDXDXDXDXDXDXDXDXDXDXDXDXDXDXDXDXDXDXDXDXDXDXDXDXDXDXDXDXDXDXDXDX"
};
