/* XPM */
static char *result[] = {
/* columns rows colors chars-per-pixel */
"50 50 243 2 ",
"   c #2D511F",
".  c #2A4C1F",
"X  c #2D5C23",
"o  c #2B5621",
"O  c #305A22",
"+  c #374E20",
"@  c #2E6325",
"#  c #316325",
"$  c #346A26",
"%  c #3A6D26",
"&  c #356C28",
"*  c #3A7528",
"=  c #3C7B2A",
"-  c #377128",
";  c #505C25",
":  c #417D29",
">  c #447628",
",  c #4D6B29",
"<  c #646925",
"1  c #7F5539",
"2  c #99382E",
"3  c #90492C",
"4  c #A55627",
"5  c #8A6C34",
"6  c #A76B29",
"7  c #BB6C37",
"8  c #BC773A",
"9  c #AE742F",
"0  c #C77939",
"q  c #D17D32",
"w  c #946944",
"e  c #966C44",
"r  c #B17747",
"t  c #C97942",
"y  c #3F812A",
"u  c #43842B",
"i  c #458A2B",
"p  c #4A8B2A",
"a  c #52872B",
"s  c #4C942C",
"d  c #4F9A2C",
"f  c #4D9225",
"g  c #52962C",
"h  c #539B2C",
"j  c #5A992B",
"k  c #508F37",
"l  c #779934",
"z  c #69972C",
"x  c #56A32D",
"c  c #5BA52C",
"v  c #5CAB2C",
"b  c #57A829",
"n  c #5DB32C",
"m  c #5CBB2A",
"M  c #5BA732",
"N  c #4FA12E",
"B  c #62AC2B",
"V  c #6AAD2B",
"C  c #66A42B",
"Z  c #76A92B",
"A  c #65B32B",
"S  c #6CB52B",
"D  c #6BBA2B",
"F  c #64B728",
"G  c #73B529",
"H  c #73BC2C",
"J  c #7CBD29",
"K  c #77B729",
"L  c #75BA3A",
"P  c #69AF34",
"I  c #7BC525",
"U  c #7BC52A",
"Y  c #73C329",
"T  c #78C531",
"R  c #69C229",
"E  c #5A9A47",
"W  c #6D9C4D",
"Q  c #5FAB40",
"!  c #68AB42",
"~  c #77B657",
"^  c #70AE4D",
"/  c #7EB065",
"(  c #7CC44F",
")  c #9B9B2D",
"_  c #9B9C32",
"`  c #879630",
"'  c #A6842D",
"]  c #AA9A2D",
"[  c #BB8936",
"{  c #A99836",
"}  c #B79835",
"|  c #B2922F",
" . c #88A92B",
".. c #97A82C",
"X. c #8CB12C",
"o. c #84BC2A",
"O. c #89B828",
"+. c #97B42A",
"@. c #97A531",
"#. c #8CB633",
"$. c #93B138",
"%. c #A9A72B",
"&. c #BBA62E",
"*. c #A4B62C",
"=. c #ACA433",
"-. c #A9AB34",
";. c #B7AA37",
":. c #A7B733",
">. c #BCB33B",
",. c #89A71A",
"<. c #C98839",
"1. c #DC8B3C",
"2. c #D68737",
"3. c #C29B3C",
"4. c #C89936",
"5. c #D8963B",
"6. c #C4872D",
"7. c #E38E3C",
"8. c #E7953E",
"9. c #C8A43A",
"0. c #D4A73D",
"q. c #C0BC34",
"w. c #89CA1E",
"e. c #94CE1B",
"r. c #9ACF18",
"t. c #9BD119",
"y. c #82C424",
"u. c #84C32C",
"i. c #88C923",
"p. c #98C424",
"a. c #8DC238",
"s. c #A4C12C",
"d. c #EDD02B",
"f. c #F4E32A",
"g. c #F5E038",
"h. c #BE8F4A",
"j. c #9DA843",
"k. c #8CB54C",
"l. c #A8BA46",
"z. c #A8AD45",
"x. c #B7BF62",
"c. c #8DBC61",
"v. c #CD8644",
"b. c #DC8C42",
"n. c #D68946",
"m. c #C69B46",
"M. c #DC934B",
"N. c #D99745",
"B. c #D99756",
"V. c #C88B51",
"C. c #E38E42",
"Z. c #E49343",
"A. c #EB9944",
"S. c #E4954B",
"D. c #E49A4C",
"F. c #EB9B4A",
"G. c #E79845",
"H. c #F09E4D",
"J. c #F09C45",
"K. c #E49D52",
"L. c #EC9D52",
"P. c #E49F5A",
"I. c #F19D50",
"U. c #CDAD44",
"Y. c #D7A544",
"T. c #D7AC4C",
"R. c #EDA14D",
"E. c #E4A54C",
"W. c #F1A24E",
"Q. c #ECA354",
"!. c #EBA45A",
"~. c #EDAA5D",
"^. c #E6A457",
"/. c #F1A354",
"(. c #F2A956",
"). c #F1A65B",
"_. c #F3AB5C",
"`. c #F4B15D",
"'. c #F5BE5D",
"]. c #CE9D6B",
"[. c #CFA675",
"{. c #EDAD62",
"}. c #E7AA66",
"|. c #F2AD62",
" X c #EEB264",
".X c #EEBA6C",
"XX c #F4B464",
"oX c #F4B66B",
"OX c #F5BA6B",
"+X c #F6BA66",
"@X c #EDB975",
"#X c #F3BD72",
"$X c #EAAD72",
"%X c #92CA4B",
"&X c #8CC666",
"*X c #94C76A",
"=X c #9AC874",
"-X c #85C176",
";X c #AECF6F",
":X c #DBCD4E",
">X c #F0CD48",
",X c #EFE452",
"<X c #F7C16F",
"1X c #F8C36D",
"2X c #F8C473",
"3X c #F9C976",
"4X c #F4C47B",
"5X c #F9CD7C",
"6X c #F5C579",
"7X c #F0CC78",
"8X c #C3A480",
"9X c #E6B481",
"0X c #9EC684",
"qX c #ACD189",
"wX c #BCD9A5",
"eX c #BFE0A0",
"rX c #C9D884",
"tX c #F7CB82",
"yX c #F9D384",
"uX c #F8D688",
"iX c #F2E893",
"pX c #CADCA4",
"aX c #D1DBB5",
"sX c #CAE2AB",
"dX c #D8E7B0",
"fX c #F6F5B6",
"gX c #F2EDAA",
"hX c #D7E091",
"jX c #DCE8CB",
"kX c #DFEED1",
"lX c #E7EDCD",
"zX c #F8F5C6",
"xX c #E4EBD7",
"cX c #EAF5DD",
"vX c #E8F4D5",
"bX c #F6F6D6",
"nX c #ECEED3",
"mX c #F5F7E9",
"MX c #FBFCF4",
"NX c #FCFAF6",
"BX c #EEF6E6",
"VX c #D1DFC4",
"CX c None",
/* pixels */
"CXCXCXCXCXCXCXCXCXCXCXCXCXCXCXCXCXCXCXCXCXCXCXCXCXCXCXCXCXCXCXCXCXCXCXCXCXCXCXCXCXCXCXCXCXCXCXCXCXCX",
"CXCXCXCXCXCXCXCXCXCXCXCXCXCXCXCXCXCXCXCXCXCXCXCXCXCXCXCXCXCXCXCXCXCXCXCXCXCXCXCXCXCXCXCXCXCXCXCXCXCX",
"CXCXCXCXCXCXCXCXCXCXCXCXCXCXCXCXCXCXCXCXCXCXCXCXCXCXCXCXCXCXCXCXCXCXCXCXCXCXCXCXCXCXCXCXCXCXCXCXCXCX",
"CXCXCXCXCXCXCXCXCXCXCXCXCXCXCXCXCXCXCXCXCXCXCXCXCXCXCXCXCXCXCXCXCXCXCXCXCXCXCXCXCXCXCXCXCXCXCXCXCXCX",
"CXCXCXCXCXCXCXCXCXCXCXCXCXCXCXCXCXCXCXCXf.CXCXCXCXCXCXCXCXCXCXCXCXCXCXCXCXCXCXCXCXCXCXCXCXCXe.CXCXCX",
"CXCXCXCXCXCXCXCXCXCXCXCXCXCXCXCXCXCXf.CXf.>XCXCXCXCXCXCXCXCXCXCXCXCXCXCXCXCXCXCXCXCXCXCXCXCXe.CXCXCX",
"CXCXCXCXCXCXCX>.tXCXCXCXCXCXOX6XCXCXf.d.d.>XyXCXCXCXCXCXuXyXCXCXCXCXCXyX7XCXCXCXCXCX6XOXCXp.i.CXCXCX",
"CXCXCXCXCXr.CXm.6XtXCXCXCXCX#XyX@XCXg.d.d.>XyXCXCXCXCX5XuXuXCXCXCXCXCXuX.XM.CXCXCX4XyXOXCXi.w.CXCXCX",
"CXCXCXCXCXe.s.m.@XtXCXCXCXCXOXtXtXCXCXf.>X>XyX4XCXCXCX5X5XuXCXCXCXCX5XuX.XE.CXCXCXtXtXOXCXw.i.CXCXCX",
"CXCXCXCXCXw.:.P.#XtX6XCXCXoXOX5XyXCXCXg.'.`.5X4XCXCXCX3X5XuX<XCXCXCXyX5X+X~.CXCXCXuX5XOXoXy.#.CXCXCX",
"CXCXCXCXCXi.z.P.oX#XoXCXCXoXoX3XtXCXCXCX+XXX5X4XCXCXCX3X3XyX@XCXCXCX3X5X X`.CXCXCXyX6XoXoXCX` CXCXCX",
"CXCXCXCXCXI z.P.oX#X!.CXCXoXXX2X4XCXCXCX#XXX2X6XCXCXCX3X2XyX.XCXCXCX+X3X X XCXCXCXtX2X+XoXCXw CXCXCX",
"CXCXCXt.e.i.j.|.|.oXL.CXCX|.|.2X@XCXCXCXOXXX2X#XCXCXCX1X<X5X.XCXCXCX`.1XXXXXCXCXCX6X1XXXoXe CXr w w ",
"CXCXCXCXw.I j.|.|.|.L.CXCX{.|.OX#XCXCXCXOX_.2XOXCXCXCXOX+X3X{.CXCXCX`.+XXX+XCXCXCX2XOXXX}.w e 1 CXCX",
"CXCXCXCXi.F $.).).|.S.CXCX|._.OX.XCXCXCX+X_.OXoXCXCXCXXX+X<X{.CXCXCX(.+X_.XXCXCXCX#XOX`.B.w < CXCXCX",
"CXCXCXCXw.K j.).).).n.CXCX}.).oXoXt CXCX|._.OX XCXCXB.`.`.+XP.CXCXCXR.`._._.CXCXt OX+X`.V.5 #.w.e.CX",
"CXCXCXCXCX' r ).L.).t t 0 M.).oX{.7 7 t )./.XX{.7 t n._./.~.B.0 0 7 G.`.(.).t 0 t OXXX_.M.r } p.t.CX",
"CXCXCXCXP.B.n.).I.L.S.).K.P.$X{.{.n._.|.).H._.~.D.`.Q.W.G.^.^.(.`.b.G.(.(._.(.`.S.oXXXoX~._.oXCXCXCX",
"CXCXCXCXB.^.n.!.$XL.K.oX).P.[.}.|.b.|.XX/.F.|.^.K. XQ.R.F.!.^.+XOXS.G.`.@X_._.OXK.oX}.[.^.{.{.CXCXCX",
"CXCXCXCX^.P.v.P.[.L.M.).L.L.P.|.}.b.)._./.$X@X^.M.M.D.R.9XXXK._.(.Z.G.R.]././._.S. X{.B.D.^.!.CXCXCX",
"CXCXCXCXn.M.v.L.S.F.b.L.S.F.H._.).n.J.H.H.V.}.^.b.R.A.R.].`.D.R.W.2.8.W.I.Q.A.(.S.|./.I.F././.CXCXCX",
"CXCXCXCX2.<.8 L.S.C.1.C.2.Z.F.).{.q 7.Z.H.C.(.^.2.8.8.8.J._.M.8.7.6.8.8./.F.8.8.n._.L.I.Z.Z.G.CXCXCX",
"CXCXCXCX8 0 7 L.S.b.<.2.q 1.F./.P.[ 2.7.J.7.Q.K.q 2.2.R.E.`.Y.2.5.q 7.A.F.F.1.1.0 ~.F.G.b.q 2.CXCXCX",
"CXCXCXCXCX3 6 L.V.B.9 6 3 <.N.E.^.9 4 9 Z.7.E.D.4 4 0 8.A.(.} 6 ' 9 1.8.N.F.' 3 9 Q.F.C.n.4 CXCXCXCX",
"CXCXCXCXCXCXCXD.h.h.[ 6 CXN.4.Y.U.CXCXCXY.5.Y.D.CXCXCX0.Z.E.9.' %.CX5.2.0.G.] ,.%.T.Z.1.S.CXCXCXCXCX",
"CXCXCXCXCXCXCXS.<.[ [ v.CXm.4.m.>._ CXCX0.6.>.}.CXCXCX9.8.T.m.;.*.CX9.2.9.9.O.I p.U.b.v.b.CXCXCXCXCX",
"CXCXCXCXCXu.h.M.[ [ { N.<.} =.3.:.+.CXCX9.| rXbXMXCX0.4.5.U.} -.*.*.4.6.=.;.K u.i.*.<.2.b.CXCXCXCXCX",
"CXCXCXCXCXU { n.[ ] { Y.N.{ } } =.+.CXCX9.z.cXNXNXvXCX&.&.U.>.%.*.+.4.&...+.p.t.s.;.3.0 2.CXCXCXCXCX",
"CXCXCXCXCXH _ n.@.U ) 4.^.@.| %.=...CXCX9.;XMXMXNXvXCX| =.U.;.%.s.+.} ] %...CXCXs.;.{ =.} CXCXCXCXCX",
"CXCXCXCXCXD @.V.l.R G m.m.@.] ..#.u.CXCX9.dXmXfXbXcXl.&...9.%.+.p.+.] ] +.X.CXCXO.:.o.o.} CXCXCXCXCX",
"CXCXCXCXCXD #.[.pXR n @.{ _ ..+.o.H R CXm.pXzX,XgXmXx.%.@.&.{ X.a.#...` +.o.CXCXZ K R u.-.CXCXCXCXCX",
"CXCXCXCXCXP L dXvX( n M l _ X.y.o.L D a.;.sXgXd.iXmXx.%.X.:.-.a.sXlXqXK  .O.CXCXV A Y O.X.U CXCXCXCX",
"CXCXCXCXCXA P eXBX&Xv N j  .K G J D J o.+.sXzX>XgXvX%X| O.p. .=XMXMXBX%XO.J S CXA H D ..X.u.u.CXCXCX",
"CXCXCXCXT A ~ qXgX;Xn d M @.l G S B A o.O.%XdXfXbXkXk.) D X.#.wXMXMXNX*XZ y.K y.G A n @.o.J CXT a.CX",
"CXCXCXCXH F ~ =X,X:Xk.N B ' ` F A B x S Y %X*XdXMXqXC Z S ` l.cXbXfXbX0XV X.I J c d F U B j D T CXCX",
"CXCXCXCXY F c.0X>.:XpX~ a `  .v x v d c H H qX;XjX&Xb n $.l k.kXgX,XfXaXD Z K V a C H F h h D CXCXCX",
"CXCXCXCXCXA ^ -Xl.7XdX! > z z d n m N j S F c.&X^ v F A k.z ^ kXuXd.hX( n l P z 3 z A M a c D CXCXCX",
"CXCXCXCXCXA ! ^ *XnXwXh u j p E -XY B v D S c P B b v b Z z ! xXiX:X%X( ^ h C < 2 k.A j a x A CXCXCX",
"CXCXCXCXCXA M E ~ xX0Xd j p y M &XY I S D D B j B v g x c V L jXnXrXu.*X( N N ; 2 ! z C c M n CXCXCX",
"CXCXCXCXn g d k W aXc.f p u s n Y Y I S v v n d j b j d s x b qXBX;XI T R M i > < x C c i h N A CXCX",
"CXCXCXCXCXu p y k / k > p j B j B U U V h h s d b d s d g j i W jX%XU U D h a i % k h s i s s v CXCX",
"CXCXCXP CXu u = = = i = i g b p u h B c h b s p d s p u k B N p c.L S j d d i p u u i h s i u x CXCX",
"CXCXCXCXu = = * - : = & = i > > - y u = u = y = = = u & > a * * & & $ & i p i i * : i p i = = CXCXCX",
"CXCXCXCXCX& - : # * # X - = ; ; X = * $ $ @ & - $ * = , % u O   @ & % & = * = - @ @ @ & y - CXCXCXCX",
"CXCXCXCXCXCX$ % o $ X . $ $ ; +   % # # @ # , $ $ $ > CX# % o O X X & & & $ % # X X X X - CXCXCXCXCX",
"CXCXCXCXCXCXCXCXCXCXCXCXCXCXCXCXCXCXCXCXCXCXCXCXCXCXCXCXCXCXCXCXCXCXCXCXCXCX* CXCXCXCXCXCXCXCXCXCXCX",
"CXCXCXCXCXCXCXCXCXCXCXCXCXCXCXCXCXCXCXCXCXCXCXCXCXCXCXCXCXCXCXCXCXCXCXCXCXCXCXCXCXCXCXCXCXCXCXCXCXCX",
"CXCXCXCXCXCXCXCXCXCXCXCXCXCXCXCXCXCXCXCXCXCXCXCXCXCXCXCXCXCXCXCXCXCXCXCXCXCXCXCXCXCXCXCXCXCXCXCXCXCX",
"CXCXCXCXCXCXCXCXCXCXCXCXCXCXCXCXCXCXCXCXCXCXCXCXCXCXCXCXCXCXCXCXCXCXCXCXCXCXCXCXCXCXCXCXCXCXCXCXCXCX",
"CXCXCXCXCXCXCXCXCXCXCXCXCXCXCXCXCXCXCXCXCXCXCXCXCXCXCXCXCXCXCXCXCXCXCXCXCXCXCXCXCXCXCXCXCXCXCXCXCXCX"
};
