/* XPM */
static char *result[] = {
/* columns rows colors chars-per-pixel */
"50 50 220 2 ",
"   c #0F581D",
".  c #13561F",
"X  c #135B1F",
"o  c #19591F",
"O  c #12611F",
"+  c #135D20",
"@  c #1B5C21",
"#  c #1C5A25",
"$  c #275C26",
"%  c #335E2B",
"&  c #375D26",
"*  c #146321",
"=  c #1B6423",
"-  c #156B23",
";  c #1B6B25",
":  c #1D692A",
">  c #157425",
",  c #1A7425",
"<  c #147826",
"1  c #1D7A2A",
"2  c #236225",
"3  c #2B6426",
"4  c #246C26",
"5  c #2C6B25",
"6  c #24672A",
"7  c #276A2D",
"8  c #356A25",
"9  c #336C29",
"0  c #396728",
"q  c #25742C",
"w  c #2C742C",
"e  c #267728",
"r  c #37752A",
"t  c #2B6C36",
"y  c #376636",
"u  c #2C7834",
"i  c #397633",
"p  c #7D5E29",
"a  c #6D5C2F",
"s  c #456B2D",
"d  c #47662A",
"f  c #5A6728",
"g  c #46772B",
"h  c #4B6A33",
"j  c #476834",
"k  c #556B32",
"l  c #5F6A33",
"z  c #4B7736",
"x  c #537333",
"c  c #5C793D",
"v  c #5B7438",
"b  c #6A672B",
"n  c #746329",
"m  c #686B33",
"M  c #776A37",
"N  c #647532",
"B  c #687739",
"V  c #76763A",
"C  c #60712D",
"Z  c #376C40",
"A  c #567C44",
"S  c #4E6E44",
"D  c #7C6A44",
"F  c #7C7F43",
"G  c #6E7F67",
"H  c #8B5326",
"J  c #8F5628",
"K  c #8D5A2A",
"L  c #905729",
"P  c #945B2B",
"I  c #995F2D",
"U  c #915D31",
"Y  c #97602E",
"T  c #9B622E",
"R  c #886735",
"E  c #956232",
"W  c #9C6533",
"Q  c #9E6936",
"!  c #9E6C3C",
"~  c #9A6638",
"^  c #84773B",
"/  c #95733B",
"(  c #94783C",
")  c #82602D",
"_  c #A36B36",
"`  c #A36D39",
"'  c #A96F3B",
"]  c #A46832",
"[  c #A5723D",
"{  c #AC743C",
"}  c #AA7B3F",
"|  c #B1763E",
" . c #B2793F",
".. c #A1682F",
"X. c #867948",
"o. c #967947",
"O. c #8B7A51",
"+. c #947C56",
"@. c #997853",
"#. c #8C6E4F",
"$. c #AB7541",
"%. c #AC7B43",
"&. c #A47641",
"*. c #B17740",
"=. c #B57B43",
"-. c #B97E46",
";. c #B37E49",
":. c #BB7F48",
">. c #A77E51",
",. c #378724",
"<. c #298023",
"1. c #448827",
"2. c #528537",
"3. c #4C8F2E",
"4. c #69843E",
"5. c #558949",
"6. c #508F4A",
"7. c #6C8445",
"8. c #758241",
"9. c #698659",
"0. c #788653",
"q. c #6E9152",
"w. c #7EA85B",
"e. c #7B9262",
"r. c #838347",
"t. c #8A8649",
"y. c #988749",
"u. c #938257",
"i. c #9B8A5D",
"p. c #978956",
"a. c #969455",
"s. c #819F5E",
"d. c #BA8047",
"f. c #B4834B",
"g. c #BC8249",
"h. c #B8854A",
"j. c #A88857",
"k. c #BB8B53",
"l. c #B58756",
"z. c #AB9456",
"x. c #A89656",
"c. c #B79C5B",
"v. c #91BB50",
"b. c #9E8E61",
"n. c #968D7C",
"m. c #8E9670",
"M. c #A88B64",
"N. c #A49365",
"B. c #A9976A",
"V. c #AB9A6B",
"C. c #A59568",
"Z. c #B69867",
"A. c #A79478",
"S. c #B59B73",
"D. c #98A76A",
"F. c #94AD73",
"G. c #BEAB7B",
"H. c #B5A474",
"J. c #B1AB71",
"K. c #C1864D",
"L. c #C2894E",
"P. c #C48D52",
"I. c #C88F54",
"U. c #C59254",
"Y. c #C99456",
"T. c #C49459",
"R. c #CA9659",
"E. c #C79A5A",
"W. c #CC9A5C",
"Q. c #D19E5D",
"!. c #C5904F",
"~. c #C5A15F",
"^. c #D3A05F",
"/. c #CB9C60",
"(. c #D19F60",
"). c #CCA462",
"_. c #C4A666",
"`. c #D4A361",
"'. c #DAA664",
"]. c #D7A965",
"[. c #DBA966",
"{. c #DDAB69",
"}. c #D7AC6A",
"|. c #DFB16E",
" X c #C4AC7E",
".X c #C2B27E",
"XX c #D0AB7B",
"oX c #E1AE6A",
"OX c #E1B26E",
"+X c #E3B471",
"@X c #979182",
"#X c #8F9782",
"$X c #B39D83",
"%X c #BAA78C",
"&X c #A7B688",
"*X c #B8B482",
"=X c #A9BE92",
"-X c #C5AE8C",
";X c #C4B281",
":X c #C9B584",
">X c #C9BC88",
",X c #D3BF8B",
"<X c #D5C18F",
"1X c #CBC994",
"2X c #DDC996",
"3X c #DBC996",
"4X c #D4CA95",
"5X c #E3CD9A",
"6X c #E0CB97",
"7X c #E6D19D",
"8X c #E9D49F",
"9X c #CBD6B7",
"0X c #EAD5A2",
"qX c #EDDBAB",
"wX c #EAD6A6",
"eX c #F2DEAE",
"rX c #EBDCB3",
"tX c #F2E7C9",
"yX c #EEEBD3",
"uX c None",
/* pixels */
"uXuXuXuXuXuXuXuXuXuXuXuXuXuXuXuXuXuXuXuXuXuXuXuXuXuXuXuXuXuXuXuXuXuXuXuXuXuXuXuXuXuXuXuXuXuXuXuXuXuX",
"uXuXuXL.uXuXuXuXuXuXE uXuXuXuXuXuXR.U.uXuXuXuXuXuX[ uXuXuXuXuXuX_ uXuXuXuXuXuXuXY.uXuXuXuXuXuXP.uXuX",
"uXuXP.g.uXuXuXuXuXuXQ E uXuXuXuXuXW.R.uXuXuXuXuX;.' uXuXuXuXuXuXT _ uXuXuXuXuXW.Y.uXuXuXuXuXuXP.g.uX",
"uXuXL.K.P.uXuXuXuX:._ _ uXuXuXuX^.Q.W.uXuXuXuXuXd.' d.uXuXuXuXK I ] uXuXuXuXuX`.W.`.uXuXuXuXK.L.L.uX",
"uX=.P.g.U.uXuXuXuXg.Q { uXuXuXuX`.`.R.^.uXuXuX-.d._ -.uXuXuXuXL P T T uXuXuX^.'.Y.^.uXuXuXuXg.L.K.Q.",
"uX=.P.K.R.uXuXuXuXd.Q { !.uXuXuX^.`.Q.`.uXuXuX=.-._ -.uXuXuXuXP T T T uXuXuX^.'.W.^.uXuXuXuXd.P.K.}.",
"uX=.I.K.W.uXuXuXuXd.Q { uXuXuXuX`.'.Q.Q.uXuXuX:.-.' -.uXuXuXuXP T T T uXuXuX^.'.Q.Q.uXuXuXuXg.Y.L.oX",
"uX=.P.g.Q.uXuXuXuXd._ { uXuXuXuX`.[.Q.^.uXuXuX-.K.{ d.uXuXuXuXP T I E uXuXuX^.[.Q.Q.uXuXuXuXg.P.g.|.",
"uX=.P.g.R.uXuXuXuXg.' | uXuXuXuX`.'.Q.`.uXuXuX:.-.{ :.uXuXuXuXI ..P W uXuXuX^.[.`.`.uXuXuXuXg.P.d.|.",
"uX=.P.g.W.uXuXuXh.K.{ | P.uXuXuXQ.^.Q.Q.uXuXuX*.d.| d.P.uXuXf.I ] P ` uXuXuXW.'.W.W.T.uXuX%.d.I.g.+X",
"uX-.P.P.W.k.R.R.$.:.$.=.f.`.oXP.R.'.(.R.&.g.$._ K.=.:.[ T.W.! L ] I E ;.Q.k.k.`.`.W.` =.d.~ -.T.P.+X",
"uX-.S.S.R.l.W.W.$.k.%Xf.f.W.`.k.R.-X XR.~ *.' _ k.$Xd.! { =.U U $X@.I ~ g.` d.XX-X).! =.%.U -.%XZ.|.",
"uX=.M.n.W.l.`.(.$.>.@X>.;.T.Q.h.Y.A.A.T.E { _ W M.@X;.! =.L.~ U n.#.I %.Y.$.f.S.n./.! %.| K ;.@Xj.oX",
"uX-.>.@.W.U.{.{.$.:.+.=.-./.[.k.Y.j.j.W.` :.$.W ;.+.-.` =.K.E P #.R I %.P.$.h.l.j./.&.=.=.E =.+.f.+X",
"uX-.d.{ T.k.}.}.$.=.*.-.;.`.|.k.Y.(.`.W.$.g.$.~ :.=.d.` =.-.U L P L I ` g.[ f.Q.Q.(.&.=.d.E -.=.-.+X",
"uX=.g.=.W.k.uXuX&.=.*.:.h.uXuXl.W.].].].&.uXuX` :.-.g.[ uXuXL P P K I uXuXuXY.'.[.}.&.uXuXW -.:.-.|.",
"uX-.K. .Y.uXuXuXuX-.| d.uXuXuXuX`.[.oX+XuXuXuX| g.-.:.uXuXuXuXP P L W uXuXuX^.'.oXOXuXuXuXuXd.:.=.].",
"uX=.:.-.P.uXuXuXuX:. .:.uXuXuXuX`.{.{.}.uXuXuX$.d.=.:.uXuXuXuXI P L W uXuXuX^.[.oX'.uXuXuXuX-.g.:.).",
"uX=.K. .P.uXuXuXuXd.=.:.uXuXuXuX`.[.'.`.uXuXuX| K.=.=.uXuXuXuXI P L E uXuXuX^.[.}.^.uXuXuXuX-.:.-.W.",
"uX*.:.=.k.uXuXuXuXK. .=.uXuXuXuX^.[.`./.uXuXuX| -.| =.uXuXuXuXL P J T uXuXuX^.'.[.W.uXuXuXuX-.-.-.Y.",
"uX=.:.=.d.uXuXuXuX-.=.{ uXuXuXuX`.oX`.(.uXuXuX$.:.=.=.uXuXuXuXH P J I uXuXuX^.^.[.R.uXuXuXuX-.-.=.U.",
"uX-.:.| d.uXuXuXuX:.| _ uXuXuXuX'.'.'.`.uXuXuX=.:.=.=.uXuXuXuXH P J I uXuXuX^.[.[.^.uXuXuXuX:.-.| U.",
"uX=.:. .d.uXuXuXuX:.| ` uXuXuXuX'.'.oX[.uXuXuX-.:.=.=.uXuXuXuXH I J W uXuXuX`.oX{.[.uXuXuXuX:.-.| U.",
"uX-.:.=.-.uXuXuXuX-.| { uXuXuXuXoXoXoXoXuXuXuX=.:.=.=.uXuXuXuXH P J I uXuXuX'.{.{.OXuXuXuXuXd.-.| L.",
"uX=.g.=.-.uXuXuXuXd.*.| uXuXuXuX'.[.[.oXuXuXuX;.:.=.=.uXuXuXuXL L L E uXuXuX~.`.`.oXuXuXuXuX-.d.| U.",
"uX| g.*.=.uXuXuXuX:.=.:.uXuXuXuXoXoX'.oXuXuXuX*.:.-.:.uXuXuXuXL K L E uXuXuXx.z.E.[.uXuXuXuX-.-.| U.",
"uX| g.| d.uXuXuXuX:. .-.Y.uXuXuX'.oX'.{.uXuXuX=.:.=.:.uXuXuXuXP L L I uXuXuXX.r.).'.uXuXuXuX=.-.| U.",
"uX*.K.| f.uXuXuXuX:.:.-.W.uXuXuX`.].{.oXuXuXuX*.K.-.K.uXuXuXuXP P L L uXuXuXV h ).[.uXuXuXuX-.d.| U.",
"uX*.g.{ ( uXuXuXuXg.:.K.Q.uXuXuX^.c.OX+XuXuXuX=.g.=.L.uXuXuXuXP L U L uXuXuXV 0 ~.}.uXuXuXuX-.g.=.Y.",
"uX*.g.} o.uXuXuXuX:.:.d.[.uXuXuX).z.OX+XuXuXuX=.K.=.L.uXuXuXuXP J L R uXuXuXB s c.).uXuXuXuX=.g.-.Y.",
"uX*.d.=.^ uXuXuXuXg.=.K.oXuXuXuX).z.OX{.uXuXuX-.d.=.Y.uXuXuXuXP J J R t uXuXz h x.c.uXuXuXuX=.d.-.Y.",
"uX*.d.} r.uXuXuXuXd.:.L.OXuXuXuXz.x.}.c.uXuXuX*.K.-.Y.uXuXuXuXP H H ~ : uXuXr s t.a.uXuXuXuXd.=.-.Y.",
"uX=.d./ 8.e.uXuXuXo.K.P.oXuXuX% y.a._.c.uXuXuX%.K.K.R.uXuXuXuXK J K ) * uXuX: 0 F t.uXuXuXuXd.( =.R.",
"uX=.=./ c e.uXuXd m P.L.uXuXuXy r.y.c.z.y u uX/ K.P.R.uXuXuXuXp J K M 6 : * * 3 j F uXuXuXuXf.B } R.",
"uX^ &./ x 5.uXi % ^ l.L._.uXuX$ A X.z.p.y 7 uX/ h.k.R.uXuXuXw b K n C 6 7 t , o @ A uXuXuXuX( g %.R.",
"uXl V ( d i F B % ^ y.y.Z.c 7.c 0 B x.F m t i R y.%.y.t.a.8.r n K C C z = w w X + 0 m k.( B 4.N *.W.",
"uXN x B s s N x & m p.8.a.x r g + j r.v d = 8 b m X.F V m x w n M N f 5 O 2 e O + @ a X.x.a.2.0.%.W.",
"uX^ u i 5 8 N 8 & k #XA z 4.u g + t S 0 & 4 8 d h y B m h 4 4 f q.2.f 2 O O , O + @ m *XrX3Xq.e.j.T.",
"uX^ 5 w 5 5 g r @ j G v 9 z w h . $ y $ d r 5 & j y B k 8 > 5 0 5.2.8 O O 3 , O * 4 D.yXtXwXD.9.o.E.",
"uXV 4 e r r r , . % h v r q , 0 . $ % . $ r 4 $ 7 = 6 % 5 > ; 8 r 3.s O O = O O * = =XtX5X0X*Xx &.W.",
"uXV 8 1 ,.1.,., = 5 9 9 , , - 4 O 2 3 X * ; ; @ @ = @ o ; > = 3 1.1.4 * *   * - * q 9XrX5X0X>Xm { W.",
"uXk 3 <.,.3.,.> , e 0 ; > > - * . = 2 * * - * . + X + X - > * @ ,.,.- * * X * -   6.yXwX;X5X1Xk ( /.",
"uX% q.4X1Xv.w.6.e <.e > 1 <.: X + + * - * * * . * . * * - > + + ,.,.* * X     X + &XyX0XG. X*Xk R E.",
"uX0.4X0XeXeXqXqXF.1.4 - 1 1 ; O . O > > > * + + * * + - * - + 6 s.s.6 X   + A q.F.yXqX6X;XM.B.A 7.c.",
"uXC.2X2X7XqXqX8XqXF.+ - < < > * . + > > > - . * - - O - - * : &XeXwXD.X y J.1X,XeXrX8XH.b.u.B.5X3X;X",
"uXN.;X2X8X8X0X8X2X1XA * < < < > * - < < > > * - > - - > < q e.wX8X8X;Xc *X8XH.V.2X8X<XV.C.N.S.8XwXqX",
"uXu.S.<X8X8X2X4X:X0X>Xu < < < > > < < < < > > > < < < < u D.S.-X8X7XG.G.8X.XC.B.;X2XH.V.V.N.N.3X0X7X",
"uXD i.H..XG.S.b.b.<X4X6.< < < < < < < < < < < < < < < < 2.C.u.b.<X XC.:X:XB.u.u.i.C.N.i.u.O.X.S.G.H.",
"uXuXM +.i.u.uXuXuXN.B.uXuXuXuXuXuXuXuXuXuXuXuXuXuXuXuXuXuXD a O.b.i.O.uXuXX.uXuXuXuXuXuXuXuXuXuXuXuX",
"uXuXuXuXuXuXuXuXuXuXuXuXuXuXuXuXuXuXuXuXuXuXuXuXuXuXuXuXuXuXuXuXuXuXuXuXuXuXuXuXuXuXuXuXuXuXuXuXuXuX"
};
