/* XPM */
static char *result[] = {
/* columns rows colors chars-per-pixel */
"50 50 194 2 ",
"   c #C91F25",
".  c #C71F25",
"X  c #D21E25",
"o  c #DF1F25",
"O  c #E61D23",
"+  c #EC1E23",
"@  c #C62127",
"#  c #CC2027",
"$  c #C6262C",
"%  c #D22027",
"&  c #D82026",
"*  c #D2242A",
"=  c #CA373C",
"-  c #CC2E34",
";  c #ED2225",
":  c #EB252A",
">  c #EB2B2D",
",  c #E62025",
"<  c #E93A3B",
"1  c #E73A3D",
"2  c #D33D43",
"3  c #E53D41",
"4  c #BB5F62",
"5  c #B9696C",
"6  c #C4454B",
"7  c #C54B4F",
"8  c #C25559",
"9  c #D2464B",
"0  c #E54A4C",
"q  c #E44549",
"w  c #E44F50",
"e  c #E35455",
"r  c #C35C60",
"t  c #DC6265",
"y  c #DA676A",
"u  c #D06F72",
"i  c #E16364",
"p  c #5F8A3B",
"a  c #618D3C",
"s  c #65943E",
"d  c #68973D",
"f  c #65983F",
"g  c #6A9A3F",
"h  c #5E9A5D",
"j  c #658D4B",
"k  c #659640",
"l  c #679A40",
"z  c #6A9D41",
"x  c #68964A",
"c  c #709F49",
"v  c #6B9452",
"b  c #779F5D",
"n  c #6EA241",
"m  c #70A542",
"M  c #72A842",
"N  c #72A14E",
"B  c #6FA35E",
"V  c #76A154",
"C  c #7A9D7D",
"Z  c #5DA477",
"A  c #67A274",
"S  c #8FB273",
"D  c #87AA77",
"F  c #7C9E81",
"G  c #59AB94",
"H  c #7FA086",
"J  c #56B2B0",
"K  c #79C1A4",
"L  c #54B9C9",
"P  c #7DBFCD",
"I  c #4FBFE1",
"U  c #50BFE1",
"Y  c #56C0DA",
"T  c #64C2D8",
"R  c #6CC7DD",
"E  c #7CC1D2",
"W  c #75C7D8",
"Q  c #4FC0E3",
"!  c #53C3E5",
"~  c #5AC5E6",
"^  c #55C5E9",
"/  c #63C6E4",
"(  c #66C8E5",
")  c #6CC9E4",
"_  c #68C6E1",
"`  c #75CBE3",
"'  c #7CCDE3",
"]  c #838787",
"[  c #878A8A",
"{  c #8E9191",
"}  c #999C9C",
"|  c #A7999A",
" . c #BF9B9E",
".. c #82A688",
"X. c #99B795",
"o. c #8EB089",
"O. c #91AEB3",
"+. c #96B1BD",
"@. c #A9A9AA",
"#. c #AFB4B4",
"$. c #B1B4B6",
"%. c #B8BBBB",
"&. c #BEA6A7",
"*. c #C8898B",
"=. c #DA8485",
"-. c #CF8F91",
";. c #CE9193",
":. c #C19496",
">. c #D59B9C",
",. c #CDA5A8",
"<. c #D4A6A7",
"1. c #C4B4B5",
"2. c #C5BCBD",
"3. c #D2B4B4",
"4. c #D1BABB",
"5. c #88C18A",
"6. c #AEC79A",
"7. c #ABC3B3",
"8. c #B1C9B7",
"9. c #C9D8BC",
"0. c #99B6C4",
"q. c #A5BDDD",
"w. c #82CCD9",
"e. c #89C7D4",
"r. c #96C8D2",
"t. c #96D1D8",
"y. c #93C4CE",
"u. c #A8C6CB",
"i. c #BECBCB",
"p. c #B9C9C4",
"a. c #A7CBD4",
"s. c #B7D0D2",
"d. c #83CFE1",
"f. c #8BD2E4",
"g. c #93D4E3",
"h. c #9BD7E8",
"j. c #9DD8E5",
"k. c #ACC2E1",
"l. c #B5CAE2",
"z. c #A2D9E4",
"x. c #ADDDE5",
"c. c #AADCEA",
"v. c #A1D9E9",
"b. c #BFD6E7",
"n. c #BBE2EB",
"m. c #C1CACA",
"M. c #CCCBCB",
"N. c #C4C7C7",
"B. c #D4C6C6",
"V. c #C0D2CF",
"C. c #C0CFD0",
"Z. c #C4D3D4",
"A. c #CAD4D5",
"S. c #CAD6D9",
"D. c #CDDADC",
"F. c #C6D5D9",
"G. c #D4D5D5",
"H. c #D3DDDD",
"J. c #DDDEDE",
"K. c #DAE5D2",
"L. c #E3EADD",
"P. c #CEDCE2",
"I. c #CDDCEA",
"U. c #C2D5E7",
"Y. c #D1DEE4",
"T. c #D3DFEF",
"R. c #D2DFF0",
"E. c #C4E5EC",
"W. c #CAE7EC",
"Q. c #CAE6E7",
"!. c #D4E4E5",
"~. c #DBE2E3",
"^. c #D4E2EA",
"/. c #DBE7ED",
"(. c #DBEBEB",
"). c #D2ECEC",
"_. c #DDF0EE",
"`. c #D6EBF0",
"'. c #DCEDF2",
"]. c #D8E3F1",
"[. c #E1E3E3",
"{. c #E4EBEC",
"}. c #E9EDED",
"|. c #E1E8E2",
" X c #E1F2EF",
".X c #E3ECF3",
"XX c #E9EFF4",
"oX c #E6F1F4",
"OX c #ECF1F2",
"+X c #F3F5F5",
"@X c #F6F7F8",
"#X c #F7F8F8",
"$X c #F9F9F9",
"%X c None",
/* pixels */
"%X%X%X%X%X%X%X%X%X%X%X%X%X%X%X%X%X%X%X%X%X%X%X%X%X%X%X%X%X%X%X* + %X%X%X%X%X%X%X%X%X%X%X%X%X%X%X%X%X",
"%X%X%X%X%X%X%X%X%X%X%X%X%X%X[ %.%X%X%X%X%X%X%X%X%X%X%X% % % X O ; %X%X%X%X%X%X%X%X%X%X%X%X%X%X%X%X%X",
"%X%X%X%X%X%X%X%X%X%X%X%X%X] } J.%X%X%X%X%X%X%X%X& % % % % % & + i q %X%X%X%X%X%X%X%X%X%X%X%X%X%X%X%X",
"%X%X%X%X%X%X%X%X%X%X%X%X] { G.J.G.%X%X%X%XX * X % % % % % X O 3 2.>.> %X%X%X%X%X%X%X%X%X%X%X%X%X%X%X",
"%X%X%X%X%X%X%X%X%X%X%X] [ M.[.G.4.* * X X * X * % % % % % o : -.A.A.i %X%X%X%X%X%X%X%X%X%X%X%X%X%X%X",
"%X%X%X%X%X%X%X%X%X%X} } %.[.G.G.3.- X X X X X * % % % % & + t m.{.~.3.< %X%X%X%X%X%X%X%X%X%X%X%X%X%X",
"%X%X%X%X%X%X%X%X%X%X$.$.$.N.G.G.B.9 * X * X X X % % % & O 1 1.H.$X+X!.u ; %X%X%X%X%X%X%X%X%X%X%X%X%X",
"%X%X%X%X%X%X%X%X%X%X%X5 | @.M.G.G.y X * X * * X % % # O : -.Z.+X$X$X XM.0 %X%X%X%X%X%X%X%X%X%X%X%X%X",
"%X%X%X%X%X%X%X%X%X%X%XX 7 | #.A.G.>.* X % % % % % % X + t N.{.$X$X$X#X!.>.> %X%X%X%X%X%X%X%X%X%X%X%X",
"%X%X%X%X%X%X%X%X%X%X% % X 7 | %.G.B.2 X % % % % % % O 3 1.H.#X$X$X$X$XOXS.i %X%X%X%X%X%X%X%X%X%X%X%X",
"%X%X%X%X%X%X%X%X%X% % % X X 8 @.N.G.y   % % % % % o : -.Z.+X$X$X$X#X$X#X(.3.< %X%X%X%X%X%X%X%X%X%X%X",
"%X%X%X%X%X%X%X%X% % % % X X   4 @.,.2 X % % % % & + t i.[.$X$X$X$X$X$X$X+X!.=.+ %X%X%X%X%X%X%X%X%X%X",
"%X%X%X%X%X%X%X% % % % % % % X * 6 = X X % % % & O 1 1.H.#X$X$X$X$X$X$X$X$X{.M.w %X%X%X%X%X%X%X%X%X%X",
"%X%X%X%X%X%X% % % % % % % % % % X X % X % % % & : -.Z.OX$X$X$X$X#X$X$X$X$X#X(.>.> %X%X%X%X%X%X%X%X%X",
"%X%X%X%X%X%X% % % % % % % % % % % % % % % % & + t m.~.$X$X$X$X$X$X$X$X$X$X$XOXH.i + %X%X%X%X%X%X%X%X",
"%X%X%X%X%X% % % % % % % % % % % % % % % % & O 3 1.D.+X$X$X$X$X$X$X$X$X$X$X$X$X{.4.1 %X%X%X%X%X%X%X%X",
"%X%X%X%X% % % % % % % % % % % % % % % % % o : -.Z.}.$X$X$X$X$X$X$X$X$X$X$X$X$X+X!.=.; %X%X%X%X%X%X%X",
"%X%X%X% % % % % % % % % % % % % % % % % & + t i.~.$X$X$X$X$X$X$X$X$X$X$X$X$X$X$X XM.w %X%X%X%X%X%X%X",
"%X%X% % % % % % % % % % % % % % % % % * + 3 1.G.+X$X$X$X$X$X$X$X$X$X$X$X$X$X$X$X#X(.<.> %X%X%X%X%X%X",
"%X% % % % % % % % % % % % % % % % % % O : ;.V.}.$X$X$X$X$X$X$X$X$X$X$X$X$X$X$X$X#X+X!.i + %X%X%X%X%X",
"% % % % % % % % % % % % % % % % % % X + y m.Y.$X$X$X$X$X$X$X$X$X$X$X$X$X$X$X$X$X#X$X{.9.< %X%X%X%X%X",
"# # % % % % % % % % % % % % % % % % O 3 1.A.+X$X$X$X$X$X#X$X$X$X$X$X$X$X$X$X$X$X$X$X#X!.=.; %X%X%X%X",
"@ @ @ # % % % % % % % % % % % X % O : -.C.{.$X$X#X$X$X#X$X$X$X$X$X$X$X$X$X$X$X$X$X$X$XOXG.e %X%X%X%X",
"%X%X@ @ @ . % % % % % % % % % X * + y i.H.$X$X$X$X$X$X$X$X$X$X#X$X$X$X$X$X$X$X$X#X$X$X+XP.<.%X%X%X%X",
"%X%X%X%Xr 7 $ . $   X % % % X * O q 1.A.+X$X$X$X$X$X$X$X$X$X$X$X+XoX X'.'.oX+X$X$X$X$X%X%X%X%X%X%X%X",
"%X%X%X%X%X2.:.8 $ @ . % % % X o : ;.m.{.$X$X$X$X$X$X$X$X$XoXE.h.' ( / ~ / ( v.$X$X$X$X%X%X%X%X%X%X%X",
"%X%X%X%X%X%Xs.i.&.u = . . # * + y m.H.#X#X$X$X$X$X$X$X'.v.) ~ ~ ' g.z.' ^ ^ c.$X$X$X$X%X%X%X%X%X%X%X",
"%X%X%X%X%X%XN.u.E y.#.*.7 $ X q 2.A.OX$X$X$X$X$X$XoXv.( ^ ) / ) )._._.g.^ ^ E.$X$X$X%X%X%X%X%X%X%X%X",
"%X%X%X%X%X%X%Xi.P W T E 0. .y ,.Z.~.#X#X$X$X$X$X`.` ^ ( j.).d./ Q.).E.` ^ ( oX$X$X$X%X%X%X%X%X%X%X%X",
"%X%X%X%X%X%X%X%Xu.t.W t.t.r.Z.Z.Z.H.+X$X$X$X$X$X`./ ^ z._._.g.! ' R R ^ ^ ` OX$X$X%X%X%X%X%X%X%X%X%X",
"%X%X%X%X%X%X%X%Xi.e.T ` w.E Z.F.S.S.}.$X$X$X$X$X$Xh.^ ' x.d.T ^ ' x.v.~ ^ f.$X$X#X%X%X%X%X%X%X%X%X%X",
"%X%X%X%X%X%X%X%X%Xa.e.R W W s.S.S.S.~.#X$X#X$X$X$X'.( ^ W j.x._ x._.n.^ ^ c.$X$XK.N l %X%X%X%X%X%X%X",
"%X%X%X%X%X%X%X%X%XZ.r.W t.t.r.D.D.D.Y.+X#X#X$X$X$X#Xg.^ f.(._.d.g.).f.^ ^ E.$X$X6.z l l l l %X%X%X%X",
"%X%X%X%X%X%X%X%X%X%XF.s.a.e.e.S.D.D.D.}.$X$X$X$X$X$XW.~ _ E.n.d._ ) T 5.W .X$X#XS f l l f l z l %X%X",
"%X%X%X%X%X%X%X%X%X%XD.D.P.D.P.P.D.Y.Y./.$X$X$X$X$X$X+X' ^ ( / ~ ! Q Y K w.@X$XL.V d l l l l z l l %X",
"%X%X%X%X%X%X%X%X%X%X%XP.P.D.Y.P.Y.Y.Y.^.+X$X$X$X$X$X$Xc.^ ^ I U ! ! Q ^ h.$X$X9.l d l l z z z z z l ",
"%X%X%X%X%X%X%X%X%X%XN p.P.D.Y.Y.Y.Y.Y.Y.OX$X$X#X$X$X$X`./ ^ U ^ ^ ^ Y ^ x.$X$X6.s g l l z n l z l l ",
"%X%X%X%X%X%X%X%Xl l f ..l.U.Y.Y.Y.Y./.T..X$X$X$X$X$X$X@X` ^ U ^ ~ ^ I / '.$X+XS d k l z z z n z z l ",
"%X%X%X%X%X%X%Xl l l s j O.q.k.U.I.T.^.^./.@X$X$X$X$X$X$Xh.^ U ^ ^ ^ I ) oX@X|.V d g z z n z l l z l ",
"%X%X%X%X%Xl l l k s a p j C +.q.k.b.I.]./.+X$X#X$X$X$X$Xn.^ U ^ ^ ! I ' ].].i.N z z n n z n n l l %X",
"%X%X%X%Xl l l k k k p p p p j F 0.q.q.l.U.XX#X+X+XXX.X.Xb.~ ^ Q ! ! ^ e.Z.8.S n m z z m z z z z %X%X",
"%X%X%Xl z z l g k k k s k a p p j ..0.q.q.U./.T.R.R.R.^.I./ Q L J G Z B N c n m m M m m m z z %X%X%X",
"%X%Xl n n n z z l f f d s s s a a a v ..0.k.T.T.I.P.i.8.X.Z v v l g g g n n m n m m m m z %X%X%X%X%X",
"%X%Xl n n n n n n l z l k k s k s s a a v } 7.X.D b x d s d k z g z z m n m m M M m m z %X%X%X%X%X%X",
"%X%Xn m m m m m m g m g z z g l g g d k s s k s s d k l z z n n m m m m m M m m m m %X%X%X%X%X%X%X%X",
"%X%Xn n M M M m m m m g z z z z z g z z g l z z l z z m n m m m M m m m m m n %X%X%X%X%X%X%X%X%X%X%X",
"%X%X%Xn m m M m M M m m m m m m m g m m z c z m n m m m n n n n m m n z z %X%X%X%X%X%X%X%X%X%X%X%X%X",
"%X%X%X%Xz n m m m m m m m m c m z m m g m m n m n n m n n n n n z %X%X%X%X%X%X%X%X%X%X%X%X%X%X%X%X%X",
"%X%X%X%X%X%Xz n n n n n n n n n n n n n n n n n n n l n l %X%X%X%X%X%X%X%X%X%X%X%X%X%X%X%X%X%X%X%X%X",
"%X%X%X%X%X%X%X%X%Xz l l l n n l n l l n l l l l %X%X%X%X%X%X%X%X%X%X%X%X%X%X%X%X%X%X%X%X%X%X%X%X%X%X"
};
